<svg width="0" height="0" class="hidden">
  <symbol version="1.1" id="like" xmlns="http://www.w3.org/2000/svg" xmlns:xlink="http://www.w3.org/1999/xlink" x="0px" y="0px" xml:space="preserve" viewBox="0 0 512 512">
    <g>
      <g>
        <path d="M474.644,74.27C449.391,45.616,414.358,29.836,376,29.836c-53.948,0-88.103,32.22-107.255,59.25
			c-4.969,7.014-9.196,14.047-12.745,20.665c-3.549-6.618-7.775-13.651-12.745-20.665c-19.152-27.03-53.307-59.25-107.255-59.25
			c-38.358,0-73.391,15.781-98.645,44.435C13.267,101.605,0,138.213,0,177.351c0,42.603,16.633,82.228,52.345,124.7
			c31.917,37.96,77.834,77.088,131.005,122.397c19.813,16.884,40.302,34.344,62.115,53.429l0.655,0.574
			c2.828,2.476,6.354,3.713,9.88,3.713s7.052-1.238,9.88-3.713l0.655-0.574c21.813-19.085,42.302-36.544,62.118-53.431
			c53.168-45.306,99.085-84.434,131.002-122.395C495.367,259.578,512,219.954,512,177.351
			C512,138.213,498.733,101.605,474.644,74.27z M309.193,401.614c-17.08,14.554-34.658,29.533-53.193,45.646
			c-18.534-16.111-36.113-31.091-53.196-45.648C98.745,312.939,30,254.358,30,177.351c0-31.83,10.605-61.394,29.862-83.245
			C79.34,72.007,106.379,59.836,136,59.836c41.129,0,67.716,25.338,82.776,46.594c13.509,19.064,20.558,38.282,22.962,45.659
			c2.011,6.175,7.768,10.354,14.262,10.354c6.494,0,12.251-4.179,14.262-10.354c2.404-7.377,9.453-26.595,22.962-45.66
			c15.06-21.255,41.647-46.593,82.776-46.593c29.621,0,56.66,12.171,76.137,34.27C471.395,115.957,482,145.521,482,177.351
			C482,254.358,413.255,312.939,309.193,401.614z"></path>
      </g>
    </g>
  </symbol>
  <symbol version="1.1" id="user" xmlns="http://www.w3.org/2000/svg" xmlns:xlink="http://www.w3.org/1999/xlink" x="0px" y="0px" xml:space="preserve" viewBox="0 0 512 512">
    <g>
      <g>
        <path d="M256,0c-74.439,0-135,60.561-135,135s60.561,135,135,135s135-60.561,135-135S330.439,0,256,0z"></path>
      </g>
    </g>
    <g>
      <g>
        <path d="M423.966,358.195C387.006,320.667,338.009,300,286,300h-60c-52.008,0-101.006,20.667-137.966,58.195
			C51.255,395.539,31,444.833,31,497c0,8.284,6.716,15,15,15h420c8.284,0,15-6.716,15-15
			C481,444.833,460.745,395.539,423.966,358.195z"></path>
      </g>
    </g>
  </symbol>
  <symbol xmlns="http://www.w3.org/2000/svg" viewBox="0 1 511 511.999" id="home">
    <path d="m498.699219 222.695312c-.015625-.011718-.027344-.027343-.039063-.039062l-208.855468-208.847656c-8.902344-8.90625-20.738282-13.808594-33.328126-13.808594-12.589843 0-24.425781 4.902344-33.332031 13.808594l-208.746093 208.742187c-.070313.070313-.144532.144531-.210938.214844-18.28125 18.386719-18.25 48.21875.089844 66.558594 8.378906 8.382812 19.441406 13.234375 31.273437 13.746093.484375.046876.96875.070313 1.457031.070313h8.320313v153.695313c0 30.417968 24.75 55.164062 55.167969 55.164062h81.710937c8.285157 0 15-6.71875 15-15v-120.5c0-13.878906 11.292969-25.167969 25.171875-25.167969h48.195313c13.878906 0 25.167969 11.289063 25.167969 25.167969v120.5c0 8.28125 6.714843 15 15 15h81.710937c30.421875 0 55.167969-24.746094 55.167969-55.164062v-153.695313h7.71875c12.585937 0 24.421875-4.902344 33.332031-13.8125 18.359375-18.367187 18.367187-48.253906.027344-66.632813zm-21.242188 45.421876c-3.238281 3.238281-7.542969 5.023437-12.117187 5.023437h-22.71875c-8.285156 0-15 6.714844-15 15v168.695313c0 13.875-11.289063 25.164062-25.167969 25.164062h-66.710937v-105.5c0-30.417969-24.746094-55.167969-55.167969-55.167969h-48.195313c-30.421875 0-55.171875 24.75-55.171875 55.167969v105.5h-66.710937c-13.875 0-25.167969-11.289062-25.167969-25.164062v-168.695313c0-8.285156-6.714844-15-15-15h-22.328125c-.234375-.015625-.464844-.027344-.703125-.03125-4.46875-.078125-8.660156-1.851563-11.800781-4.996094-6.679688-6.679687-6.679688-17.550781 0-24.234375.003906 0 .003906-.003906.007812-.007812l.011719-.011719 208.847656-208.839844c3.234375-3.238281 7.535157-5.019531 12.113281-5.019531 4.574219 0 8.875 1.78125 12.113282 5.019531l208.800781 208.796875c.03125.03125.066406.0625.097656.09375 6.644531 6.691406 6.632813 17.539063-.03125 24.207032zm0 0"></path>
  </symbol>
  <symbol version="1.1" id="left-arrow" xmlns="http://www.w3.org/2000/svg" xmlns:xlink="http://www.w3.org/1999/xlink" x="0px" y="0px" xml:space="preserve" viewBox="0 0 447.243 447.243">
    <g>
      <g>
        <path d="M420.361,192.229c-1.83-0.297-3.682-0.434-5.535-0.41H99.305l6.88-3.2c6.725-3.183,12.843-7.515,18.08-12.8l88.48-88.48
			c11.653-11.124,13.611-29.019,4.64-42.4c-10.441-14.259-30.464-17.355-44.724-6.914c-1.152,0.844-2.247,1.764-3.276,2.754
			l-160,160C-3.119,213.269-3.13,233.53,9.36,246.034c0.008,0.008,0.017,0.017,0.025,0.025l160,160
			c12.514,12.479,32.775,12.451,45.255-0.063c0.982-0.985,1.899-2.033,2.745-3.137c8.971-13.381,7.013-31.276-4.64-42.4
			l-88.32-88.64c-4.695-4.7-10.093-8.641-16-11.68l-9.6-4.32h314.24c16.347,0.607,30.689-10.812,33.76-26.88
			C449.654,211.494,437.806,195.059,420.361,192.229z"></path>
      </g>
    </g>
  </symbol>
  <symbol version="1.1" id="menu" xmlns="http://www.w3.org/2000/svg" xmlns:xlink="http://www.w3.org/1999/xlink" x="0px" y="0px" xml:space="preserve" viewBox="0 0 512 512">
    <g>
      <g>
        <path d="M176.792,0H59.208C26.561,0,0,26.561,0,59.208v117.584C0,209.439,26.561,236,59.208,236h117.584
			C209.439,236,236,209.439,236,176.792V59.208C236,26.561,209.439,0,176.792,0z M196,176.792c0,10.591-8.617,19.208-19.208,19.208
			H59.208C48.617,196,40,187.383,40,176.792V59.208C40,48.617,48.617,40,59.208,40h117.584C187.383,40,196,48.617,196,59.208
			V176.792z"></path>
      </g>
    </g>
    <g>
      <g>
        <path d="M452,0H336c-33.084,0-60,26.916-60,60v116c0,33.084,26.916,60,60,60h116c33.084,0,60-26.916,60-60V60
			C512,26.916,485.084,0,452,0z M472,176c0,11.028-8.972,20-20,20H336c-11.028,0-20-8.972-20-20V60c0-11.028,8.972-20,20-20h116
			c11.028,0,20,8.972,20,20V176z"></path>
      </g>
    </g>
    <g>
      <g>
        <path d="M176.792,276H59.208C26.561,276,0,302.561,0,335.208v117.584C0,485.439,26.561,512,59.208,512h117.584
			C209.439,512,236,485.439,236,452.792V335.208C236,302.561,209.439,276,176.792,276z M196,452.792
			c0,10.591-8.617,19.208-19.208,19.208H59.208C48.617,472,40,463.383,40,452.792V335.208C40,324.617,48.617,316,59.208,316h117.584
			c10.591,0,19.208,8.617,19.208,19.208V452.792z"></path>
      </g>
    </g>
    <g>
      <g>
        <path d="M452,276H336c-33.084,0-60,26.916-60,60v116c0,33.084,26.916,60,60,60h116c33.084,0,60-26.916,60-60V336
			C512,302.916,485.084,276,452,276z M472,452c0,11.028-8.972,20-20,20H336c-11.028,0-20-8.972-20-20V336c0-11.028,8.972-20,20-20
			h116c11.028,0,20,8.972,20,20V452z"></path>
      </g>
    </g>
  </symbol>
  <symbol version="1.1" id="chat" xmlns="http://www.w3.org/2000/svg" xmlns:xlink="http://www.w3.org/1999/xlink" x="0px" y="0px" xml:space="preserve" viewBox="0 0 512 512">
    <g>
      <g>
        <path d="M256,0C114.848,0,0,114.848,0,256c0,49.216,13.792,96.48,39.936,137.216L1.152,490.048
			c-2.368,5.952-0.992,12.736,3.552,17.28C7.744,510.368,11.84,512,16,512c2.016,0,4-0.384,5.952-1.152l96.832-38.784
			C159.52,498.208,206.784,512,256,512c141.152,0,256-114.848,256-256S397.152,0,256,0z M256,480
			c-45.632,0-89.312-13.504-126.272-39.072c-2.688-1.888-5.888-2.848-9.088-2.848c-2.016,0-4.032,0.384-5.952,1.152l-69.952,28.032
			l28.032-69.952c1.984-4.992,1.344-10.656-1.696-15.04C45.504,345.312,32,301.632,32,256C32,132.48,132.48,32,256,32
			s224,100.48,224,224S379.52,480,256,480z"></path>
      </g>
    </g>
  </symbol>
</svg>